<?xml version="1.0" standalone="no"?>
<!DOCTYPE svg PUBLIC "-//W3C//DTD SVG 20010904//EN"
 "http://www.w3.org/TR/2001/REC-SVG-20010904/DTD/svg10.dtd">
<svg version="1.0" xmlns="http://www.w3.org/2000/svg"
 width="700.000000pt" height="700.000000pt" viewBox="0 0 700.000000 700.000000"
 preserveAspectRatio="xMidYMid meet">
<metadata>
Created by potrace 1.14, written by Peter Selinger 2001-2017
</metadata>
<g transform="translate(0.000000,700.000000) scale(0.100000,-0.100000)"
fill="#000000" stroke="none">
<path d="M3215 6994 c-527 -52 -991 -193 -1418 -433 -575 -321 -1037 -783
-1359 -1358 -213 -382 -345 -781 -415 -1258 -14 -95 -18 -187 -18 -445 0 -348
7 -419 61 -695 198 -995 833 -1864 1731 -2366 381 -214 782 -346 1258 -416
152 -22 706 -25 855 -5 691 95 1270 339 1784 752 639 514 1087 1249 1240 2038
55 283 61 346 61 692 0 346 -6 409 -61 692 -148 762 -575 1482 -1179 1989
-517 433 -1119 699 -1800 795 -114 16 -633 28 -740 18z m2355 -1861 c0 -17
-1766 -1793 -1783 -1793 -17 0 -157 134 -157 151 0 9 162 175 361 370 l361
354 -138 6 c-190 9 -1213 10 -1405 2 l-157 -6 122 -118 121 -118 -760 -760
c-418 -419 -765 -761 -771 -761 -20 0 -24 28 -24 168 l0 136 372 373 373 373
-373 373 -372 373 0 141 c0 115 3 143 16 154 13 11 74 -46 457 -429 l443 -443
34 36 34 35 -492 493 -492 492 0 137 c0 140 4 168 24 168 6 0 263 -252 571
-560 l561 -561 34 36 34 36 -563 563 c-410 410 -562 568 -558 580 6 15 187 16
2067 16 1954 0 2060 -1 2060 -17z m78 -115 c8 -8 12 -57 12 -152 l0 -141 -812
-812 c-447 -447 -816 -813 -820 -813 -16 0 -158 143 -158 159 0 14 1746 1771
1760 1771 4 0 11 -5 18 -12z m6 -494 c3 -9 6 -77 6 -152 l0 -136 -372 -373
-373 -373 373 -373 372 -373 0 -141 c0 -115 -3 -143 -16 -153 -13 -12 -76 47
-457 429 l-443 441 -34 -35 -34 -35 492 -493 492 -492 0 -137 c0 -140 -4 -168
-24 -168 -6 0 -263 252 -571 560 l-561 561 -34 -36 -34 -36 563 -563 c410
-410 562 -568 558 -580 -6 -15 -187 -16 -2067 -16 -1954 0 -2060 1 -2060 17 0
18 1767 1793 1784 1793 18 0 156 -133 156 -150 0 -11 -148 -163 -361 -372
l-360 -353 138 -6 c189 -9 1212 -10 1405 -2 l158 6 -123 118 -122 118 760 760
c418 419 765 761 771 761 7 0 15 -7 18 -16z m-2598 -696 c41 -39 74 -79 74
-87 0 -9 -396 -412 -879 -895 -764 -764 -882 -878 -895 -867 -13 11 -16 39
-16 155 l0 141 812 812 c447 447 817 813 821 813 5 0 42 -32 83 -72z"/>
<path d="M2000 4902 c0 -4 19 -27 43 -50 l43 -42 1419 0 1419 0 43 42 c24 23
43 46 43 50 0 4 -677 8 -1505 8 -828 0 -1505 -4 -1505 -8z"/>
<path d="M2344 4561 c-2 -2 18 -24 44 -49 l47 -45 1070 -1 1070 -1 48 44 c26
24 47 46 47 50 0 6 -2319 9 -2326 2z"/>
<path d="M2635 4240 c-3 -5 -1 -10 4 -10 6 0 11 5 11 10 0 6 -2 10 -4 10 -3 0
-8 -4 -11 -10z"/>
<path d="M2378 2491 c-27 -24 -48 -46 -48 -50 0 -7 2317 -8 2324 0 3 3 -15 25
-39 49 l-45 44 -1072 0 -1073 1 -47 -44z"/>
<path d="M2032 2147 c-23 -23 -42 -46 -42 -50 0 -4 677 -7 1505 -7 828 0 1505
4 1505 8 0 4 -19 27 -43 50 l-43 42 -1420 0 -1420 0 -42 -43z"/>
</g>
</svg>
