<?xml version="1.0" standalone="no"?>
<!DOCTYPE svg PUBLIC "-//W3C//DTD SVG 20010904//EN"
 "http://www.w3.org/TR/2001/REC-SVG-20010904/DTD/svg10.dtd">
<svg version="1.0" xmlns="http://www.w3.org/2000/svg"
 width="480.000000pt" height="480.000000pt" viewBox="0 0 480.000000 480.000000"
 preserveAspectRatio="xMidYMid meet">
<metadata>
Created by potrace 1.14, written by Peter Selinger 2001-2017
</metadata>
<g transform="translate(0.000000,480.000000) scale(0.100000,-0.100000)"
fill="#000000" stroke="none">
<path d="M943 3602 c-25 -2 -43 -8 -43 -15 0 -7 182 -194 405 -417 223 -223
405 -408 405 -413 0 -4 -9 -17 -19 -28 -19 -21 -20 -20 -426 386 -264 264
-411 405 -421 401 -11 -4 -14 -29 -14 -114 l0 -108 356 -356 c352 -352 355
-356 338 -377 -10 -12 -23 -21 -29 -21 -5 0 -151 142 -324 315 -173 174 -319
314 -325 312 -7 -2 -12 -47 -14 -114 l-3 -110 266 -265 c146 -146 265 -269
265 -272 0 -4 -119 -127 -265 -273 l-265 -265 0 -114 c0 -87 3 -114 13 -114
19 0 1113 1097 1109 1112 -1 7 -38 47 -82 90 -45 43 -74 78 -67 80 10 4 1176
3 1202 -1 5 0 -109 -117 -253 -259 -144 -142 -262 -262 -262 -268 0 -12 102
-114 115 -114 6 0 302 292 660 650 482 482 647 652 638 661 -8 8 -400 11
-1465 13 -799 0 -1472 0 -1495 -2z m2547 -186 c0 -1 -12 -16 -27 -32 l-27 -29
-1027 -1 -1027 -1 -31 29 c-17 16 -31 31 -31 34 0 2 488 4 1085 4 597 0 1085
-2 1085 -4z m-274 -278 l-36 -32 -776 -1 -775 0 -31 30 -31 30 34 5 c19 3 398
4 842 2 l809 -2 -36 -32z"/>
<path d="M3300 2870 c-349 -351 -634 -642 -633 -648 4 -19 107 -113 120 -110
8 2 277 266 599 588 l584 584 0 113 c0 101 -2 113 -17 112 -10 -1 -304 -288
-653 -639z"/>
<path d="M3395 2610 c-303 -303 -552 -553 -555 -556 -3 -3 35 -43 82 -89 67
-63 84 -84 70 -87 -15 -4 -1152 -3 -1192 1 -8 0 104 117 248 259 144 142 262
263 262 269 0 12 -105 113 -117 113 -4 0 -300 -292 -658 -650 -483 -483 -647
-652 -638 -661 8 -8 398 -11 1470 -11 1724 1 1533 -1 1533 15 0 6 -182 194
-405 417 -223 223 -405 410 -405 416 0 6 9 19 19 28 19 17 33 4 425 -388 223
-223 413 -406 421 -406 12 0 15 19 15 113 l0 112 -356 357 -356 356 21 21 c12
12 24 21 28 21 3 0 148 -142 321 -315 174 -174 320 -314 326 -312 7 2 12 46
14 114 l3 110 -266 265 c-146 146 -265 269 -265 273 0 3 119 126 265 272 l266
266 -3 110 c-2 66 -7 112 -13 114 -6 2 -258 -244 -560 -547z m-204 -930 c51
-54 120 -50 -800 -50 l-841 0 34 33 35 32 779 0 c673 -1 781 -3 793 -15z m261
-265 l33 -30 -542 -3 c-298 -1 -787 -1 -1088 0 l-547 3 24 26 c14 14 31 28 38
31 8 2 472 4 1031 4 l1017 -1 34 -30z"/>
<path d="M1415 2104 l-580 -583 -3 -116 c-2 -96 0 -115 12 -115 11 0 1199
1177 1279 1267 18 21 17 22 -39 77 -32 31 -65 55 -73 54 -9 0 -277 -263 -596
-584z"/>
</g>
</svg>
